<svg width="134" height="134" viewBox="0 0 134 134" fill="none" xmlns="http://www.w3.org/2000/svg">
<g id="green-dot.svg" clip-path="url(#clip0_1753_82898)">
<g id="Group">
<g id="Group_2">
<g id="Group_3">
<path id="Vector" d="M9.35505 79.9621C9.35505 80.887 9.0808 81.791 8.56699 82.56C8.05319 83.3289 7.32291 83.9283 6.46848 84.2822C5.61406 84.6361 4.67388 84.7287 3.76682 84.5483C2.85977 84.3679 2.02658 83.9225 1.37263 83.2686C0.718678 82.6146 0.273329 81.7814 0.0929041 80.8744C-0.0875204 79.9673 0.00507149 79.0271 0.358987 78.1727C0.712902 77.3183 1.31225 76.588 2.08122 76.0742C2.85018 75.5604 3.75423 75.2861 4.67906 75.2861C5.91913 75.2864 7.10835 75.7791 7.98521 76.656C8.86207 77.5328 9.35478 78.7221 9.35505 79.9621Z" fill="#10AF13"/>
<path id="Vector_2" d="M34.238 79.9621C34.238 80.887 33.9638 81.791 33.45 82.56C32.9362 83.3289 32.2059 83.9283 31.3515 84.2822C30.4971 84.6361 29.5569 84.7287 28.6498 84.5483C27.7428 84.3679 26.9096 83.9225 26.2556 83.2686C25.6017 82.6146 25.1563 81.7814 24.9759 80.8744C24.7955 79.9673 24.8881 79.0271 25.242 78.1727C25.5959 77.3183 26.1952 76.588 26.9642 76.0742C27.7332 75.5604 28.6372 75.2861 29.5621 75.2861C30.1761 75.286 30.7843 75.4068 31.3516 75.6418C31.919 75.8767 32.4346 76.2212 32.8688 76.6554C33.303 77.0896 33.6474 77.6052 33.8824 78.1725C34.1173 78.7399 34.2382 79.348 34.238 79.9621Z" fill="#10AF13"/>
<path id="Vector_3" d="M59.129 79.9621C59.129 80.887 58.8548 81.791 58.341 82.56C57.8272 83.3289 57.0969 83.9283 56.2425 84.2822C55.388 84.6361 54.4478 84.7287 53.5408 84.5483C52.6337 84.3679 51.8005 83.9225 51.1466 83.2686C50.4926 82.6146 50.0473 81.7814 49.8669 80.8744C49.6865 79.9673 49.7791 79.0271 50.133 78.1727C50.4869 77.3183 51.0862 76.588 51.8552 76.0742C52.6241 75.5604 53.5282 75.2861 54.453 75.2861C55.0671 75.286 55.6752 75.4068 56.2426 75.6418C56.81 75.8767 57.3255 76.2212 57.7597 76.6554C58.194 77.0896 58.5384 77.6052 58.7734 78.1725C59.0083 78.7399 59.1292 79.348 59.129 79.9621Z" fill="#10AF13"/>
<path id="Vector_4" d="M84.017 79.9621C84.017 80.887 83.7428 81.791 83.229 82.56C82.7152 83.3289 81.9849 83.9283 81.1305 84.2822C80.276 84.6361 79.3358 84.7287 78.4288 84.5483C77.5217 84.3679 76.6885 83.9225 76.0346 83.2686C75.3806 82.6146 74.9353 81.7814 74.7549 80.8744C74.5745 79.9673 74.6671 79.0271 75.021 78.1727C75.3749 77.3183 75.9742 76.588 76.7432 76.0742C77.5121 75.5604 78.4162 75.2861 79.341 75.2861C79.9551 75.286 80.5632 75.4068 81.1306 75.6418C81.698 75.8767 82.2135 76.2212 82.6477 76.6554C83.082 77.0896 83.4264 77.6052 83.6614 78.1725C83.8963 78.7399 84.0172 79.348 84.017 79.9621Z" fill="#10AF13"/>
<path id="Vector_5" d="M108.907 79.9621C108.907 80.887 108.633 81.791 108.119 82.56C107.605 83.3289 106.875 83.9283 106.02 84.2822C105.166 84.6361 104.226 84.7287 103.319 84.5483C102.412 84.3679 101.579 83.9225 100.925 83.2686C100.271 82.6146 99.8253 81.7814 99.6449 80.8744C99.4645 79.9673 99.5571 79.0271 99.911 78.1727C100.265 77.3183 100.864 76.588 101.633 76.0742C102.402 75.5604 103.306 75.2861 104.231 75.2861C105.471 75.2864 106.66 75.7791 107.537 76.656C108.414 77.5328 108.907 78.7221 108.907 79.9621Z" fill="#10AF13"/>
<path id="Vector_6" d="M133.795 79.9621C133.795 80.887 133.521 81.791 133.007 82.56C132.493 83.3289 131.763 83.9283 130.908 84.2822C130.054 84.6361 129.114 84.7287 128.207 84.5483C127.3 84.3679 126.467 83.9225 125.813 83.2686C125.159 82.6146 124.713 81.7814 124.533 80.8744C124.352 79.9673 124.445 79.0271 124.799 78.1727C125.153 77.3183 125.752 76.588 126.521 76.0742C127.29 75.5604 128.194 75.2861 129.119 75.2861C130.359 75.2864 131.548 75.7791 132.425 76.656C133.302 77.5328 133.795 78.7221 133.795 79.9621Z" fill="#10AF13"/>
</g>
<g id="Group_4">
<path id="Vector_7" d="M9.35505 104.782C9.35505 105.707 9.0808 106.611 8.56699 107.38C8.05319 108.149 7.32291 108.748 6.46848 109.102C5.61406 109.456 4.67388 109.549 3.76682 109.368C2.85977 109.188 2.02658 108.743 1.37263 108.089C0.718678 107.435 0.273329 106.601 0.0929041 105.694C-0.0875204 104.787 0.00507149 103.847 0.358987 102.993C0.712902 102.138 1.31225 101.408 2.08122 100.894C2.85018 100.38 3.75423 100.106 4.67906 100.106C5.91904 100.107 7.1081 100.599 7.9849 101.476C8.86171 102.353 9.35452 103.542 9.35505 104.782Z" fill="#10AF13"/>
<path id="Vector_8" d="M34.238 104.782C34.238 105.707 33.9638 106.611 33.45 107.38C32.9362 108.149 32.2059 108.748 31.3515 109.102C30.4971 109.456 29.5569 109.549 28.6498 109.368C27.7428 109.188 26.9096 108.743 26.2556 108.089C25.6017 107.435 25.1563 106.601 24.9759 105.694C24.7955 104.787 24.8881 103.847 25.242 102.993C25.5959 102.138 26.1952 101.408 26.9642 100.894C27.7332 100.38 28.6372 100.106 29.5621 100.106C30.8021 100.106 31.9913 100.599 32.8682 101.476C33.7451 102.353 34.2378 103.542 34.238 104.782Z" fill="#10AF13"/>
<path id="Vector_9" d="M59.129 104.782C59.129 105.707 58.8548 106.611 58.341 107.38C57.8272 108.149 57.0969 108.748 56.2425 109.102C55.388 109.456 54.4478 109.549 53.5408 109.368C52.6337 109.188 51.8005 108.743 51.1466 108.089C50.4926 107.435 50.0473 106.601 49.8669 105.694C49.6865 104.787 49.7791 103.847 50.133 102.993C50.4869 102.138 51.0862 101.408 51.8552 100.894C52.6241 100.38 53.5282 100.106 54.453 100.106C55.6931 100.106 56.8823 100.599 57.7592 101.476C58.636 102.353 59.1288 103.542 59.129 104.782Z" fill="#10AF13"/>
<path id="Vector_10" d="M84.017 104.782C84.017 105.707 83.7428 106.611 83.229 107.38C82.7152 108.149 81.9849 108.748 81.1305 109.102C80.276 109.456 79.3358 109.549 78.4288 109.368C77.5217 109.188 76.6885 108.743 76.0346 108.089C75.3806 107.435 74.9353 106.601 74.7549 105.694C74.5745 104.787 74.6671 103.847 75.021 102.993C75.3749 102.138 75.9742 101.408 76.7432 100.894C77.5121 100.38 78.4162 100.106 79.341 100.106C80.5811 100.106 81.7703 100.599 82.6472 101.476C83.524 102.353 84.0168 103.542 84.017 104.782Z" fill="#10AF13"/>
<path id="Vector_11" d="M108.907 104.782C108.907 105.707 108.633 106.611 108.119 107.38C107.605 108.149 106.875 108.748 106.02 109.102C105.166 109.456 104.226 109.549 103.319 109.368C102.412 109.188 101.579 108.743 100.925 108.089C100.271 107.435 99.8253 106.601 99.6449 105.694C99.4645 104.787 99.5571 103.847 99.911 102.993C100.265 102.138 100.864 101.408 101.633 100.894C102.402 100.38 103.306 100.106 104.231 100.106C105.471 100.107 106.66 100.599 107.537 101.476C108.414 102.353 108.907 103.542 108.907 104.782Z" fill="#10AF13"/>
<path id="Vector_12" d="M133.795 104.782C133.795 105.707 133.521 106.611 133.007 107.38C132.493 108.149 131.763 108.748 130.908 109.102C130.054 109.456 129.114 109.549 128.207 109.368C127.3 109.188 126.467 108.743 125.813 108.089C125.159 107.435 124.713 106.601 124.533 105.694C124.352 104.787 124.445 103.847 124.799 102.993C125.153 102.138 125.752 101.408 126.521 100.894C127.29 100.38 128.194 100.106 129.119 100.106C130.359 100.107 131.548 100.599 132.425 101.476C133.302 102.353 133.795 103.542 133.795 104.782Z" fill="#10AF13"/>
</g>
<g id="Group_5">
<path id="Vector_13" d="M9.35505 129.598C9.35505 130.523 9.0808 131.427 8.56699 132.196C8.05319 132.965 7.32291 133.564 6.46848 133.918C5.61406 134.272 4.67388 134.365 3.76682 134.184C2.85977 134.004 2.02658 133.558 1.37263 132.905C0.718678 132.251 0.273329 131.417 0.0929041 130.51C-0.0875204 129.603 0.00507149 128.663 0.358987 127.809C0.712902 126.954 1.31225 126.224 2.08122 125.71C2.85018 125.196 3.75423 124.922 4.67906 124.922C5.91904 124.923 7.1081 125.415 7.9849 126.292C8.86171 127.169 9.35452 128.358 9.35505 129.598Z" fill="#10AF13"/>
<path id="Vector_14" d="M34.238 129.598C34.238 130.523 33.9638 131.427 33.45 132.196C32.9362 132.965 32.2059 133.564 31.3515 133.918C30.4971 134.272 29.5569 134.365 28.6498 134.184C27.7428 134.004 26.9096 133.558 26.2556 132.905C25.6017 132.251 25.1563 131.417 24.9759 130.51C24.7955 129.603 24.8881 128.663 25.242 127.809C25.5959 126.954 26.1952 126.224 26.9642 125.71C27.7332 125.196 28.6372 124.922 29.5621 124.922C30.8021 124.922 31.9913 125.415 32.8682 126.292C33.7451 127.169 34.2378 128.358 34.238 129.598Z" fill="#10AF13"/>
<path id="Vector_15" d="M59.129 129.598C59.129 130.523 58.8548 131.427 58.341 132.196C57.8272 132.965 57.0969 133.564 56.2425 133.918C55.388 134.272 54.4478 134.365 53.5408 134.184C52.6337 134.004 51.8005 133.558 51.1466 132.905C50.4926 132.251 50.0473 131.417 49.8669 130.51C49.6865 129.603 49.7791 128.663 50.133 127.809C50.4869 126.954 51.0862 126.224 51.8552 125.71C52.6241 125.196 53.5282 124.922 54.453 124.922C55.6931 124.922 56.8823 125.415 57.7592 126.292C58.636 127.169 59.1288 128.358 59.129 129.598Z" fill="#10AF13"/>
<path id="Vector_16" d="M84.017 129.598C84.017 130.523 83.7428 131.427 83.229 132.196C82.7152 132.965 81.9849 133.564 81.1305 133.918C80.276 134.272 79.3358 134.365 78.4288 134.184C77.5217 134.004 76.6885 133.558 76.0346 132.905C75.3806 132.251 74.9353 131.417 74.7549 130.51C74.5745 129.603 74.6671 128.663 75.021 127.809C75.3749 126.954 75.9742 126.224 76.7432 125.71C77.5121 125.196 78.4162 124.922 79.341 124.922C80.5811 124.922 81.7703 125.415 82.6472 126.292C83.524 127.169 84.0168 128.358 84.017 129.598Z" fill="#10AF13"/>
<path id="Vector_17" d="M108.907 129.598C108.907 130.523 108.633 131.427 108.119 132.196C107.605 132.965 106.875 133.564 106.02 133.918C105.166 134.272 104.226 134.365 103.319 134.184C102.412 134.004 101.579 133.558 100.925 132.905C100.271 132.251 99.8253 131.417 99.6449 130.51C99.4645 129.603 99.5571 128.663 99.911 127.809C100.265 126.954 100.864 126.224 101.633 125.71C102.402 125.196 103.306 124.922 104.231 124.922C105.471 124.923 106.66 125.415 107.537 126.292C108.414 127.169 108.907 128.358 108.907 129.598Z" fill="#10AF13"/>
<path id="Vector_18" d="M133.795 129.598C133.795 130.523 133.521 131.427 133.007 132.196C132.493 132.965 131.763 133.564 130.908 133.918C130.054 134.272 129.114 134.365 128.207 134.184C127.3 134.004 126.467 133.558 125.813 132.905C125.159 132.251 124.713 131.417 124.533 130.51C124.352 129.603 124.445 128.663 124.799 127.809C125.153 126.954 125.752 126.224 126.521 125.71C127.29 125.196 128.194 124.922 129.119 124.922C130.359 124.923 131.548 125.415 132.425 126.292C133.302 127.169 133.795 128.358 133.795 129.598Z" fill="#10AF13"/>
</g>
</g>
<g id="Group_6">
<g id="Group_7">
<path id="Vector_19" d="M9.35505 4.67599C9.35505 5.60082 9.0808 6.50487 8.56699 7.27383C8.05319 8.0428 7.32291 8.64215 6.46848 8.99606C5.61406 9.34998 4.67388 9.44257 3.76682 9.26215C2.85977 9.08172 2.02658 8.63637 1.37263 7.98242C0.718678 7.32847 0.273329 6.49528 0.0929041 5.58823C-0.0875204 4.68117 0.00507149 3.74099 0.358987 2.88657C0.712902 2.03214 1.31225 1.30183 2.08122 0.788025C2.85018 0.274219 3.75423 0 4.67906 0C5.91913 0.000265114 7.10835 0.49298 7.98521 1.36984C8.86207 2.24671 9.35478 3.43592 9.35505 4.67599Z" fill="#10AF13"/>
<path id="Vector_20" d="M34.238 4.67599C34.238 5.60082 33.9638 6.50487 33.45 7.27383C32.9362 8.0428 32.2059 8.64215 31.3515 8.99606C30.4971 9.34998 29.5569 9.44257 28.6498 9.26215C27.7428 9.08172 26.9096 8.63637 26.2556 7.98242C25.6017 7.32847 25.1563 6.49528 24.9759 5.58823C24.7955 4.68117 24.8881 3.74099 25.242 2.88657C25.5959 2.03214 26.1952 1.30183 26.9642 0.788025C27.7332 0.27422 28.6372 1.07002e-07 29.5621 1.07002e-07C30.1761 -0.000131265 30.7843 0.120708 31.3516 0.355652C31.919 0.590596 32.4346 0.93503 32.8688 1.36926C33.303 1.8035 33.6474 2.31904 33.8824 2.88641C34.1173 3.45379 34.2382 4.0619 34.238 4.67599Z" fill="#10AF13"/>
<path id="Vector_21" d="M59.129 4.67599C59.129 5.60082 58.8548 6.50487 58.341 7.27383C57.8272 8.0428 57.0969 8.64215 56.2425 8.99606C55.388 9.34998 54.4478 9.44257 53.5408 9.26215C52.6337 9.08172 51.8005 8.63637 51.1466 7.98242C50.4926 7.32847 50.0473 6.49528 49.8669 5.58823C49.6865 4.68117 49.7791 3.74099 50.133 2.88657C50.4869 2.03214 51.0862 1.30183 51.8552 0.788025C52.6241 0.27422 53.5282 1.07002e-07 54.453 1.07002e-07C55.0671 -0.000131265 55.6752 0.120708 56.2426 0.355652C56.81 0.590596 57.3255 0.93503 57.7597 1.36926C58.194 1.8035 58.5384 2.31904 58.7734 2.88641C59.0083 3.45379 59.1292 4.0619 59.129 4.67599Z" fill="#10AF13"/>
<path id="Vector_22" d="M84.017 4.67599C84.017 5.60082 83.7428 6.50487 83.229 7.27383C82.7152 8.0428 81.9849 8.64215 81.1305 8.99606C80.276 9.34998 79.3358 9.44257 78.4288 9.26215C77.5217 9.08172 76.6885 8.63637 76.0346 7.98242C75.3806 7.32847 74.9353 6.49528 74.7549 5.58823C74.5745 4.68117 74.6671 3.74099 75.021 2.88657C75.3749 2.03214 75.9742 1.30183 76.7432 0.788025C77.5121 0.27422 78.4162 1.07002e-07 79.341 1.07002e-07C79.9551 -0.000131265 80.5632 0.120708 81.1306 0.355652C81.698 0.590596 82.2135 0.93503 82.6477 1.36926C83.082 1.8035 83.4264 2.31904 83.6614 2.88641C83.8963 3.45379 84.0172 4.0619 84.017 4.67599Z" fill="#10AF13"/>
<path id="Vector_23" d="M108.907 4.67599C108.907 5.60082 108.633 6.50487 108.119 7.27383C107.605 8.0428 106.875 8.64215 106.02 8.99606C105.166 9.34998 104.226 9.44257 103.319 9.26215C102.412 9.08172 101.579 8.63637 100.925 7.98242C100.271 7.32847 99.8253 6.49528 99.6449 5.58823C99.4645 4.68117 99.5571 3.74099 99.911 2.88657C100.265 2.03214 100.864 1.30183 101.633 0.788025C102.402 0.274219 103.306 0 104.231 0C105.471 0.000265114 106.66 0.49298 107.537 1.36984C108.414 2.24671 108.907 3.43592 108.907 4.67599Z" fill="#10AF13"/>
<path id="Vector_24" d="M133.795 4.67599C133.795 5.60082 133.521 6.50487 133.007 7.27383C132.493 8.0428 131.763 8.64215 130.908 8.99606C130.054 9.34998 129.114 9.44257 128.207 9.26215C127.3 9.08172 126.467 8.63637 125.813 7.98242C125.159 7.32847 124.713 6.49528 124.533 5.58823C124.352 4.68117 124.445 3.74099 124.799 2.88657C125.153 2.03214 125.752 1.30183 126.521 0.788025C127.29 0.274219 128.194 0 129.119 0C130.359 0.000265114 131.548 0.49298 132.425 1.36984C133.302 2.24671 133.795 3.43592 133.795 4.67599Z" fill="#10AF13"/>
</g>
<g id="Group_8">
<path id="Vector_25" d="M9.35505 29.496C9.35505 30.4208 9.0808 31.3249 8.56699 32.0938C8.05319 32.8628 7.32291 33.4622 6.46848 33.8161C5.61406 34.17 4.67388 34.2626 3.76682 34.0822C2.85977 33.9017 2.02658 33.4564 1.37263 32.8024C0.718678 32.1485 0.273329 31.3153 0.0929041 30.4082C-0.0875204 29.5012 0.00507149 28.561 0.358987 27.7066C0.712902 26.8521 1.31225 26.1218 2.08122 25.608C2.85018 25.0942 3.75423 24.82 4.67906 24.82C5.91904 24.8205 7.1081 25.3133 7.9849 26.1902C8.86171 27.067 9.35452 28.256 9.35505 29.496Z" fill="#10AF13"/>
<path id="Vector_26" d="M34.238 29.496C34.238 30.4208 33.9638 31.3249 33.45 32.0938C32.9362 32.8628 32.2059 33.4622 31.3515 33.8161C30.4971 34.17 29.5569 34.2626 28.6498 34.0822C27.7428 33.9017 26.9096 33.4564 26.2556 32.8024C25.6017 32.1485 25.1563 31.3153 24.9759 30.4082C24.7955 29.5012 24.8881 28.561 25.242 27.7066C25.5959 26.8521 26.1952 26.1218 26.9642 25.608C27.7332 25.0942 28.6372 24.82 29.5621 24.82C30.8021 24.8203 31.9913 25.313 32.8682 26.1898C33.7451 27.0667 34.2378 28.2559 34.238 29.496Z" fill="#10AF13"/>
<path id="Vector_27" d="M59.129 29.496C59.129 30.4208 58.8548 31.3249 58.341 32.0938C57.8272 32.8628 57.0969 33.4622 56.2425 33.8161C55.388 34.17 54.4478 34.2626 53.5408 34.0822C52.6337 33.9017 51.8005 33.4564 51.1466 32.8024C50.4926 32.1485 50.0473 31.3153 49.8669 30.4082C49.6865 29.5012 49.7791 28.561 50.133 27.7066C50.4869 26.8521 51.0862 26.1218 51.8552 25.608C52.6241 25.0942 53.5282 24.82 54.453 24.82C55.6931 24.8203 56.8823 25.313 57.7592 26.1898C58.636 27.0667 59.1288 28.2559 59.129 29.496Z" fill="#10AF13"/>
<path id="Vector_28" d="M84.017 29.496C84.017 30.4208 83.7428 31.3249 83.229 32.0938C82.7152 32.8628 81.9849 33.4622 81.1305 33.8161C80.276 34.17 79.3358 34.2626 78.4288 34.0822C77.5217 33.9017 76.6885 33.4564 76.0346 32.8024C75.3806 32.1485 74.9353 31.3153 74.7549 30.4082C74.5745 29.5012 74.6671 28.561 75.021 27.7066C75.3749 26.8521 75.9742 26.1218 76.7432 25.608C77.5121 25.0942 78.4162 24.82 79.341 24.82C80.5811 24.8203 81.7703 25.313 82.6472 26.1898C83.524 27.0667 84.0168 28.2559 84.017 29.496Z" fill="#10AF13"/>
<path id="Vector_29" d="M108.907 29.496C108.907 30.4208 108.633 31.3249 108.119 32.0938C107.605 32.8628 106.875 33.4622 106.02 33.8161C105.166 34.17 104.226 34.2626 103.319 34.0822C102.412 33.9017 101.579 33.4564 100.925 32.8024C100.271 32.1485 99.8253 31.3153 99.6449 30.4082C99.4645 29.5012 99.5571 28.561 99.911 27.7066C100.265 26.8521 100.864 26.1218 101.633 25.608C102.402 25.0942 103.306 24.82 104.231 24.82C105.471 24.8205 106.66 25.3133 107.537 26.1902C108.414 27.067 108.907 28.256 108.907 29.496Z" fill="#10AF13"/>
<path id="Vector_30" d="M133.795 29.496C133.795 30.4208 133.521 31.3249 133.007 32.0938C132.493 32.8628 131.763 33.4622 130.908 33.8161C130.054 34.17 129.114 34.2626 128.207 34.0822C127.3 33.9017 126.467 33.4564 125.813 32.8024C125.159 32.1485 124.713 31.3153 124.533 30.4082C124.352 29.5012 124.445 28.561 124.799 27.7066C125.153 26.8521 125.752 26.1218 126.521 25.608C127.29 25.0942 128.194 24.82 129.119 24.82C130.359 24.8205 131.548 25.3133 132.425 26.1902C133.302 27.067 133.795 28.256 133.795 29.496Z" fill="#10AF13"/>
</g>
<g id="Group_9">
<path id="Vector_31" d="M9.35505 54.312C9.35505 55.2368 9.0808 56.1409 8.56699 56.9098C8.05319 57.6788 7.32291 58.2781 6.46848 58.632C5.61406 58.986 4.67388 59.0786 3.76682 58.8981C2.85977 58.7177 2.02658 58.2724 1.37263 57.6184C0.718678 56.9645 0.273329 56.1313 0.0929041 55.2242C-0.0875204 54.3172 0.00507149 53.377 0.358987 52.5226C0.712902 51.6681 1.31225 50.9378 2.08122 50.424C2.85018 49.9102 3.75423 49.636 4.67906 49.636C5.91904 49.6365 7.1081 50.1293 7.9849 51.0061C8.86171 51.8829 9.35452 53.072 9.35505 54.312Z" fill="#10AF13"/>
<path id="Vector_32" d="M34.238 54.312C34.238 55.2368 33.9638 56.1409 33.45 56.9098C32.9362 57.6788 32.2059 58.2781 31.3515 58.632C30.4971 58.986 29.5569 59.0786 28.6498 58.8981C27.7428 58.7177 26.9096 58.2724 26.2556 57.6184C25.6017 56.9645 25.1563 56.1313 24.9759 55.2242C24.7955 54.3172 24.8881 53.377 25.242 52.5226C25.5959 51.6681 26.1952 50.9378 26.9642 50.424C27.7332 49.9102 28.6372 49.636 29.5621 49.636C30.8021 49.6363 31.9913 50.129 32.8682 51.0059C33.7451 51.8827 34.2378 53.0719 34.238 54.312Z" fill="#10AF13"/>
<path id="Vector_33" d="M59.129 54.312C59.129 55.2368 58.8548 56.1409 58.341 56.9098C57.8272 57.6788 57.0969 58.2781 56.2425 58.632C55.388 58.986 54.4478 59.0786 53.5408 58.8981C52.6337 58.7177 51.8005 58.2724 51.1466 57.6184C50.4926 56.9645 50.0473 56.1313 49.8669 55.2242C49.6865 54.3172 49.7791 53.377 50.133 52.5226C50.4869 51.6681 51.0862 50.9378 51.8552 50.424C52.6241 49.9102 53.5282 49.636 54.453 49.636C55.6931 49.6363 56.8823 50.129 57.7592 51.0059C58.636 51.8827 59.1288 53.0719 59.129 54.312Z" fill="#10AF13"/>
<path id="Vector_34" d="M84.017 54.312C84.017 55.2368 83.7428 56.1409 83.229 56.9098C82.7152 57.6788 81.9849 58.2781 81.1305 58.632C80.276 58.986 79.3358 59.0786 78.4288 58.8981C77.5217 58.7177 76.6885 58.2724 76.0346 57.6184C75.3806 56.9645 74.9353 56.1313 74.7549 55.2242C74.5745 54.3172 74.6671 53.377 75.021 52.5226C75.3749 51.6681 75.9742 50.9378 76.7432 50.424C77.5121 49.9102 78.4162 49.636 79.341 49.636C80.5811 49.6363 81.7703 50.129 82.6472 51.0059C83.524 51.8827 84.0168 53.0719 84.017 54.312Z" fill="#10AF13"/>
<path id="Vector_35" d="M108.907 54.312C108.907 55.2368 108.633 56.1409 108.119 56.9098C107.605 57.6788 106.875 58.2781 106.02 58.632C105.166 58.986 104.226 59.0786 103.319 58.8981C102.412 58.7177 101.579 58.2724 100.925 57.6184C100.271 56.9645 99.8253 56.1313 99.6449 55.2242C99.4645 54.3172 99.5571 53.377 99.911 52.5226C100.265 51.6681 100.864 50.9378 101.633 50.424C102.402 49.9102 103.306 49.636 104.231 49.636C105.471 49.6365 106.66 50.1293 107.537 51.0061C108.414 51.8829 108.907 53.072 108.907 54.312Z" fill="#10AF13"/>
<path id="Vector_36" d="M133.795 54.312C133.795 55.2368 133.521 56.1409 133.007 56.9098C132.493 57.6788 131.763 58.2781 130.908 58.632C130.054 58.986 129.114 59.0786 128.207 58.8981C127.3 58.7177 126.467 58.2724 125.813 57.6184C125.159 56.9645 124.713 56.1313 124.533 55.2242C124.352 54.3172 124.445 53.377 124.799 52.5226C125.153 51.6681 125.752 50.9378 126.521 50.424C127.29 49.9102 128.194 49.636 129.119 49.636C130.359 49.6365 131.548 50.1293 132.425 51.0061C133.302 51.8829 133.795 53.072 133.795 54.312Z" fill="#10AF13"/>
</g>
</g>
</g>
</g>
<defs>
<clipPath id="clip0_1753_82898">
<rect width="233.349" height="134.275" fill="white"/>
</clipPath>
</defs>
</svg>
