<svg width="94" height="261" viewBox="0 0 94 261" fill="none" xmlns="http://www.w3.org/2000/svg">
<g clip-path="url(#clip0_1753_82816)">
<path d="M5.709 250.081C6.73933 250.081 7.74657 250.386 8.60334 250.958C9.46011 251.531 10.1279 252.344 10.5223 253.296C10.9167 254.248 11.0199 255.295 10.819 256.306C10.618 257.317 10.1219 258.245 9.39332 258.973C8.66477 259.702 7.73653 260.198 6.72599 260.399C5.71545 260.6 4.668 260.497 3.71614 260.102C2.76428 259.708 1.95076 259.04 1.37846 258.183C0.806163 257.327 0.500805 256.319 0.501002 255.289C0.501532 253.908 1.0504 252.584 2.02697 251.607C3.00355 250.63 4.32792 250.082 5.709 250.081Z" stroke="#10AF13" stroke-miterlimit="10"/>
<path d="M5.709 222.357C6.73933 222.357 7.74657 222.662 8.60334 223.234C9.46011 223.807 10.1279 224.62 10.5223 225.572C10.9167 226.524 11.0199 227.571 10.819 228.582C10.618 229.593 10.1219 230.521 9.39332 231.249C8.66477 231.978 7.73653 232.474 6.72599 232.675C5.71545 232.876 4.668 232.773 3.71614 232.378C2.76428 231.984 1.95076 231.316 1.37846 230.459C0.806163 229.603 0.500805 228.595 0.501002 227.565C0.501532 226.184 1.0504 224.86 2.02697 223.883C3.00355 222.906 4.32792 222.358 5.709 222.357Z" stroke="#10AF13" stroke-miterlimit="10"/>
<path d="M5.709 194.632C6.73925 194.632 7.74641 194.937 8.60314 195.509C9.45986 196.082 10.1277 196.895 10.5221 197.847C10.9165 198.798 11.0199 199.846 10.8191 200.856C10.6183 201.867 10.1224 202.795 9.39403 203.524C8.66568 204.252 7.73762 204.749 6.72721 204.95C5.7168 205.151 4.66943 205.048 3.71753 204.654C2.76564 204.26 1.95197 203.592 1.37944 202.736C0.8069 201.879 0.501201 200.872 0.501003 199.842C0.501268 198.461 1.04999 197.136 2.02656 196.159C3.00314 195.182 4.32765 194.633 5.709 194.632Z" stroke="#10AF13" stroke-miterlimit="10"/>
<path d="M5.709 166.907C6.73925 166.907 7.74641 167.212 8.60314 167.784C9.45986 168.357 10.1277 169.17 10.5221 170.122C10.9165 171.073 11.0199 172.121 10.8191 173.131C10.6183 174.142 10.1224 175.07 9.39403 175.799C8.66568 176.527 7.73762 177.024 6.72721 177.225C5.7168 177.426 4.66943 177.323 3.71753 176.929C2.76564 176.535 1.95197 175.867 1.37944 175.011C0.8069 174.154 0.501201 173.147 0.501003 172.117C0.501268 170.736 1.04999 169.411 2.02656 168.434C3.00314 167.457 4.32765 166.908 5.709 166.907Z" stroke="#10AF13" stroke-miterlimit="10"/>
<path d="M5.709 139.183C6.73925 139.183 7.74641 139.488 8.60314 140.06C9.45986 140.632 10.1277 141.446 10.5221 142.398C10.9165 143.349 11.0199 144.397 10.8191 145.407C10.6183 146.418 10.1224 147.346 9.39403 148.075C8.66568 148.803 7.73762 149.299 6.72721 149.501C5.7168 149.702 4.66943 149.599 3.71753 149.205C2.76564 148.811 1.95197 148.143 1.37944 147.287C0.8069 146.43 0.501201 145.423 0.501003 144.393C0.501533 143.012 1.05033 141.687 2.02685 140.71C3.00337 139.733 4.32773 139.184 5.709 139.183Z" stroke="#10AF13" stroke-miterlimit="10"/>
<path d="M5.70899 111.461C6.73903 111.461 7.74595 111.766 8.6024 112.339C9.45885 112.911 10.1264 113.724 10.5205 114.676C10.9147 115.628 11.0179 116.675 10.8169 117.685C10.616 118.695 10.1199 119.623 9.3916 120.352C8.66325 121.08 7.73527 121.576 6.72502 121.777C5.71476 121.978 4.66761 121.875 3.71597 121.481C2.76433 121.086 1.95096 120.419 1.3787 119.562C0.806434 118.706 0.500988 117.699 0.500988 116.669C0.501518 115.288 1.05038 113.964 2.02696 112.987C3.00353 112.01 4.3279 111.461 5.70899 111.461Z" stroke="#10AF13" stroke-miterlimit="10"/>
<path d="M5.70899 83.7371C6.73903 83.7371 7.74595 84.0425 8.6024 84.6148C9.45885 85.187 10.1264 86.0004 10.5205 86.952C10.9147 87.9037 11.0179 88.9509 10.8169 89.9611C10.616 90.9714 10.1199 91.8993 9.3916 92.6277C8.66325 93.356 7.73527 93.852 6.72502 94.053C5.71476 94.254 4.66761 94.1508 3.71597 93.7566C2.76433 93.3625 1.95096 92.6949 1.3787 91.8385C0.806434 90.982 0.500988 89.9751 0.500988 88.9451C0.501518 87.564 1.05038 86.2396 2.02696 85.2631C3.00353 84.2865 4.3279 83.7376 5.70899 83.7371Z" stroke="#10AF13" stroke-miterlimit="10"/>
<path d="M5.70899 56.012C6.73903 56.012 7.74595 56.3174 8.6024 56.8897C9.45885 57.4619 10.1264 58.2753 10.5205 59.227C10.9147 60.1786 11.0179 61.2258 10.8169 62.236C10.616 63.2463 10.1199 64.1742 9.3916 64.9026C8.66325 65.6309 7.73527 66.127 6.72502 66.3279C5.71476 66.5289 4.66761 66.4257 3.71597 66.0315C2.76433 65.6374 1.95096 64.9698 1.3787 64.1134C0.806434 63.2569 0.500988 62.25 0.500988 61.22C0.501518 59.8389 1.05038 58.5145 2.02696 57.538C3.00353 56.5614 4.3279 56.0125 5.70899 56.012Z" stroke="#10AF13" stroke-miterlimit="10"/>
<path d="M5.70899 28.288C6.73903 28.288 7.74595 28.5934 8.6024 29.1657C9.45885 29.7379 10.1264 30.5513 10.5205 31.503C10.9147 32.4546 11.0179 33.5018 10.8169 34.512C10.616 35.5223 10.1199 36.4502 9.3916 37.1786C8.66325 37.9069 7.73527 38.403 6.72502 38.6039C5.71476 38.8049 4.66761 38.7017 3.71597 38.3075C2.76433 37.9134 1.95096 37.2458 1.3787 36.3894C0.806434 35.5329 0.500988 34.526 0.500988 33.496C0.501518 32.1149 1.05038 30.7905 2.02696 29.814C3.00353 28.8374 4.3279 28.2885 5.70899 28.288Z" stroke="#10AF13" stroke-miterlimit="10"/>
<path d="M5.70899 0.563965C6.73903 0.563965 7.74595 0.869419 8.6024 1.44168C9.45885 2.01394 10.1264 2.82732 10.5205 3.77896C10.9147 4.7306 11.0179 5.77774 10.8169 6.78799C10.616 7.79825 10.1199 8.72624 9.3916 9.45459C8.66325 10.1829 7.73527 10.679 6.72502 10.8799C5.71476 11.0809 4.66761 10.9777 3.71597 10.5835C2.76433 10.1893 1.95096 9.52183 1.3787 8.66537C0.806434 7.80892 0.500988 6.80202 0.500988 5.77197C0.501518 4.39089 1.05038 3.06651 2.02696 2.08994C3.00353 1.11336 4.3279 0.564495 5.70899 0.563965Z" stroke="#10AF13" stroke-miterlimit="10"/>
<path d="M33.355 250.081C34.3853 250.081 35.3926 250.386 36.2493 250.958C37.1061 251.531 37.7739 252.344 38.1683 253.296C38.5627 254.248 38.6659 255.295 38.465 256.306C38.264 257.317 37.7679 258.245 37.0393 258.973C36.3108 259.702 35.3825 260.198 34.372 260.399C33.3614 260.6 32.314 260.497 31.3621 260.102C30.4103 259.708 29.5968 259.04 29.0245 258.183C28.4522 257.327 28.1468 256.319 28.147 255.289C28.1475 253.908 28.6964 252.584 29.673 251.607C30.6495 250.63 31.9739 250.082 33.355 250.081Z" stroke="#10AF13" stroke-miterlimit="10"/>
<path d="M33.355 222.357C34.3853 222.357 35.3926 222.662 36.2493 223.234C37.1061 223.807 37.7739 224.62 38.1683 225.572C38.5627 226.524 38.6659 227.571 38.465 228.582C38.264 229.593 37.7679 230.521 37.0393 231.249C36.3108 231.978 35.3825 232.474 34.372 232.675C33.3614 232.876 32.314 232.773 31.3621 232.378C30.4103 231.984 29.5968 231.316 29.0245 230.459C28.4522 229.603 28.1468 228.595 28.147 227.565C28.1475 226.184 28.6964 224.86 29.673 223.883C30.6495 222.906 31.9739 222.358 33.355 222.357Z" stroke="#10AF13" stroke-miterlimit="10"/>
<path d="M33.355 194.632C34.3852 194.632 35.3924 194.937 36.2491 195.509C37.1059 196.082 37.7737 196.895 38.1681 197.847C38.5625 198.798 38.6659 199.846 38.4651 200.856C38.2643 201.867 37.7684 202.795 37.04 203.524C36.3117 204.252 35.3836 204.749 34.3732 204.95C33.3628 205.151 32.3154 205.048 31.3635 204.654C30.4116 204.26 29.598 203.592 29.0254 202.736C28.4529 201.879 28.1472 200.872 28.147 199.842C28.1473 198.461 28.696 197.136 29.6726 196.159C30.6491 195.182 31.9737 194.633 33.355 194.632Z" stroke="#10AF13" stroke-miterlimit="10"/>
<path d="M33.355 166.909C30.4782 166.909 28.146 169.241 28.146 172.118C28.146 174.995 30.4782 177.327 33.355 177.327C36.2319 177.327 38.564 174.995 38.564 172.118C38.564 169.241 36.2319 166.909 33.355 166.909Z" stroke="#10AF13" stroke-miterlimit="10"/>
<path d="M33.355 139.183C34.3852 139.183 35.3924 139.488 36.2491 140.06C37.1059 140.632 37.7737 141.446 38.1681 142.398C38.5625 143.349 38.6659 144.397 38.4651 145.407C38.2643 146.418 37.7684 147.346 37.04 148.075C36.3117 148.803 35.3836 149.299 34.3732 149.501C33.3628 149.702 32.3154 149.599 31.3635 149.205C30.4116 148.811 29.598 148.143 29.0254 147.287C28.4529 146.43 28.1472 145.423 28.147 144.393C28.1475 143.012 28.6963 141.687 29.6729 140.71C30.6494 139.733 31.9737 139.184 33.355 139.183Z" stroke="#10AF13" stroke-miterlimit="10"/>
<path d="M33.355 111.461C34.385 111.461 35.3919 111.766 36.2484 112.339C37.1049 112.911 37.7724 113.724 38.1666 114.676C38.5607 115.628 38.6639 116.675 38.4629 117.685C38.262 118.695 37.766 119.623 37.0376 120.352C36.3092 121.08 35.3813 121.576 34.371 121.777C33.3608 121.978 32.3136 121.875 31.362 121.481C30.4103 121.086 29.597 120.419 29.0247 119.562C28.4524 118.706 28.147 117.699 28.147 116.669C28.1475 115.288 28.6964 113.964 29.673 112.987C30.6495 112.01 31.9739 111.461 33.355 111.461Z" stroke="#10AF13" stroke-miterlimit="10"/>
<path d="M33.355 83.7371C34.385 83.7371 35.3919 84.0425 36.2484 84.6148C37.1049 85.187 37.7724 86.0004 38.1666 86.952C38.5607 87.9037 38.6639 88.9509 38.4629 89.9611C38.262 90.9714 37.766 91.8993 37.0376 92.6277C36.3092 93.356 35.3813 93.852 34.371 94.053C33.3608 94.254 32.3136 94.1508 31.362 93.7566C30.4103 93.3625 29.597 92.6949 29.0247 91.8385C28.4524 90.982 28.147 89.9751 28.147 88.9451C28.1475 87.564 28.6964 86.2396 29.673 85.2631C30.6495 84.2865 31.9739 83.7376 33.355 83.7371Z" stroke="#10AF13" stroke-miterlimit="10"/>
<path d="M33.355 56.012C34.385 56.012 35.3919 56.3174 36.2484 56.8897C37.1049 57.4619 37.7724 58.2753 38.1666 59.227C38.5607 60.1786 38.6639 61.2258 38.4629 62.236C38.262 63.2463 37.766 64.1742 37.0376 64.9026C36.3092 65.6309 35.3813 66.127 34.371 66.3279C33.3608 66.5289 32.3136 66.4257 31.362 66.0315C30.4103 65.6374 29.597 64.9698 29.0247 64.1134C28.4524 63.2569 28.147 62.25 28.147 61.22C28.1475 59.8389 28.6964 58.5145 29.673 57.538C30.6495 56.5614 31.9739 56.0125 33.355 56.012Z" stroke="#10AF13" stroke-miterlimit="10"/>
<path d="M33.355 28.2881C30.4782 28.2881 28.146 30.6202 28.146 33.4971C28.146 36.3739 30.4782 38.7061 33.355 38.7061C36.2319 38.7061 38.564 36.3739 38.564 33.4971C38.564 30.6202 36.2319 28.2881 33.355 28.2881Z" stroke="#10AF13" stroke-miterlimit="10"/>
<path d="M33.355 0.563965C34.385 0.563965 35.3919 0.869419 36.2484 1.44168C37.1049 2.01394 37.7724 2.82732 38.1666 3.77896C38.5607 4.7306 38.6639 5.77774 38.4629 6.78799C38.262 7.79825 37.766 8.72624 37.0376 9.45459C36.3092 10.1829 35.3813 10.679 34.371 10.8799C33.3608 11.0809 32.3136 10.9777 31.362 10.5835C30.4103 10.1893 29.597 9.52183 29.0247 8.66537C28.4524 7.80892 28.147 6.80202 28.147 5.77197C28.1475 4.39089 28.6964 3.06651 29.673 2.08994C30.6495 1.11336 31.9739 0.564495 33.355 0.563965Z" stroke="#10AF13" stroke-miterlimit="10"/>
<path d="M61 250.081C62.0303 250.081 63.0376 250.386 63.8944 250.958C64.7511 251.531 65.4189 252.344 65.8133 253.296C66.2077 254.248 66.3109 255.295 66.11 256.306C65.909 257.317 65.4129 258.245 64.6843 258.973C63.9558 259.702 63.0275 260.198 62.017 260.399C61.0065 260.6 59.959 260.497 59.0072 260.102C58.0553 259.708 57.2418 259.04 56.6695 258.183C56.0972 257.327 55.7918 256.319 55.792 255.289C55.7925 253.908 56.3414 252.584 57.318 251.607C58.2946 250.63 59.6189 250.082 61 250.081Z" stroke="#10AF13" stroke-miterlimit="10"/>
<path d="M61 222.357C62.0303 222.357 63.0376 222.662 63.8944 223.234C64.7511 223.807 65.4189 224.62 65.8133 225.572C66.2077 226.524 66.3109 227.571 66.11 228.582C65.909 229.593 65.4129 230.521 64.6843 231.249C63.9558 231.978 63.0275 232.474 62.017 232.675C61.0065 232.876 59.959 232.773 59.0072 232.378C58.0553 231.984 57.2418 231.316 56.6695 230.459C56.0972 229.603 55.7918 228.595 55.792 227.565C55.7925 226.184 56.3414 224.86 57.318 223.883C58.2946 222.906 59.6189 222.358 61 222.357Z" stroke="#10AF13" stroke-miterlimit="10"/>
<path d="M61 194.632C62.0303 194.632 63.0374 194.937 63.8942 195.509C64.7509 196.082 65.4187 196.895 65.8131 197.847C66.2076 198.798 66.3109 199.846 66.1101 200.856C65.9093 201.867 65.4134 202.795 64.685 203.524C63.9567 204.252 63.0286 204.749 62.0182 204.95C61.0078 205.151 59.9604 205.048 59.0085 204.654C58.0567 204.26 57.243 203.592 56.6705 202.736C56.0979 201.879 55.7922 200.872 55.792 199.842C55.7923 198.461 56.341 197.136 57.3176 196.159C58.2942 195.182 59.6187 194.633 61 194.632Z" stroke="#10AF13" stroke-miterlimit="10"/>
<path d="M61 166.909C58.1232 166.909 55.791 169.241 55.791 172.118C55.791 174.995 58.1232 177.327 61 177.327C63.8769 177.327 66.209 174.995 66.209 172.118C66.209 169.241 63.8769 166.909 61 166.909Z" stroke="#10AF13" stroke-miterlimit="10"/>
<path d="M61 139.183C62.0303 139.183 63.0374 139.488 63.8942 140.06C64.7509 140.632 65.4187 141.446 65.8131 142.398C66.2076 143.349 66.3109 144.397 66.1101 145.407C65.9093 146.418 65.4134 147.346 64.685 148.075C63.9567 148.803 63.0286 149.299 62.0182 149.501C61.0078 149.702 59.9604 149.599 59.0085 149.205C58.0567 148.811 57.243 148.143 56.6705 147.287C56.0979 146.43 55.7922 145.423 55.792 144.393C55.7925 143.012 56.3414 141.687 57.3179 140.71C58.2944 139.733 59.6187 139.184 61 139.183Z" stroke="#10AF13" stroke-miterlimit="10"/>
<path d="M61 111.461C62.03 111.461 63.037 111.766 63.8934 112.339C64.7499 112.911 65.4174 113.724 65.8116 114.676C66.2058 115.628 66.3089 116.675 66.1079 117.685C65.907 118.695 65.411 119.623 64.6826 120.352C63.9543 121.08 63.0263 121.576 62.016 121.777C61.0058 121.978 59.9586 121.875 59.007 121.481C58.0554 121.086 57.242 120.419 56.6697 119.562C56.0974 118.706 55.792 117.699 55.792 116.669C55.7925 115.288 56.3414 113.964 57.318 112.987C58.2946 112.01 59.6189 111.461 61 111.461Z" stroke="#10AF13" stroke-miterlimit="10"/>
<path d="M61 83.7371C62.03 83.7371 63.037 84.0425 63.8934 84.6148C64.7499 85.187 65.4174 86.0004 65.8116 86.952C66.2058 87.9037 66.3089 88.9509 66.1079 89.9611C65.907 90.9714 65.411 91.8993 64.6826 92.6277C63.9543 93.356 63.0263 93.852 62.016 94.053C61.0058 94.254 59.9586 94.1508 59.007 93.7566C58.0554 93.3625 57.242 92.6949 56.6697 91.8385C56.0974 90.982 55.792 89.9751 55.792 88.9451C55.7925 87.564 56.3414 86.2396 57.318 85.2631C58.2946 84.2865 59.6189 83.7376 61 83.7371Z" stroke="#10AF13" stroke-miterlimit="10"/>
<path d="M61 56.012C62.03 56.012 63.037 56.3174 63.8934 56.8897C64.7499 57.4619 65.4174 58.2753 65.8116 59.227C66.2058 60.1786 66.3089 61.2258 66.1079 62.236C65.907 63.2463 65.411 64.1742 64.6826 64.9026C63.9543 65.6309 63.0263 66.127 62.016 66.3279C61.0058 66.5289 59.9586 66.4257 59.007 66.0315C58.0554 65.6374 57.242 64.9698 56.6697 64.1134C56.0974 63.2569 55.792 62.25 55.792 61.22C55.7925 59.8389 56.3414 58.5145 57.318 57.538C58.2946 56.5614 59.6189 56.0125 61 56.012Z" stroke="#10AF13" stroke-miterlimit="10"/>
<path d="M61 28.2881C58.1232 28.2881 55.791 30.6202 55.791 33.4971C55.791 36.3739 58.1232 38.7061 61 38.7061C63.8769 38.7061 66.209 36.3739 66.209 33.4971C66.209 30.6202 63.8769 28.2881 61 28.2881Z" stroke="#10AF13" stroke-miterlimit="10"/>
<path d="M61 0.563965C62.03 0.563965 63.037 0.869419 63.8934 1.44168C64.7499 2.01394 65.4174 2.82732 65.8116 3.77896C66.2058 4.7306 66.3089 5.77774 66.1079 6.78799C65.907 7.79825 65.411 8.72624 64.6826 9.45459C63.9543 10.1829 63.0263 10.679 62.016 10.8799C61.0058 11.0809 59.9586 10.9777 59.007 10.5835C58.0554 10.1893 57.242 9.52183 56.6697 8.66537C56.0974 7.80892 55.792 6.80202 55.792 5.77197C55.7925 4.39089 56.3414 3.06651 57.318 2.08994C58.2946 1.11336 59.6189 0.564495 61 0.563965Z" stroke="#10AF13" stroke-miterlimit="10"/>
<path d="M88.646 250.081C89.6763 250.081 90.6836 250.386 91.5404 250.958C92.3971 251.531 93.0649 252.344 93.4593 253.296C93.8537 254.248 93.9569 255.295 93.756 256.306C93.555 257.317 93.0589 258.245 92.3303 258.973C91.6018 259.702 90.6735 260.198 89.663 260.399C88.6525 260.6 87.605 260.497 86.6532 260.102C85.7013 259.708 84.8878 259.04 84.3155 258.183C83.7432 257.327 83.4378 256.319 83.438 255.289C83.438 254.605 83.5727 253.928 83.8344 253.296C84.0962 252.664 84.4798 252.09 84.9634 251.606C85.447 251.123 86.0211 250.739 86.653 250.477C87.2849 250.216 87.9621 250.081 88.646 250.081Z" stroke="#10AF13" stroke-miterlimit="10"/>
<path d="M88.646 222.357C89.6763 222.357 90.6836 222.662 91.5404 223.234C92.3971 223.807 93.0649 224.62 93.4593 225.572C93.8537 226.524 93.9569 227.571 93.756 228.582C93.555 229.593 93.0589 230.521 92.3303 231.249C91.6018 231.978 90.6735 232.474 89.663 232.675C88.6525 232.876 87.605 232.773 86.6532 232.378C85.7013 231.984 84.8878 231.316 84.3155 230.459C83.7432 229.603 83.4378 228.595 83.438 227.565C83.438 226.881 83.5727 226.204 83.8344 225.572C84.0962 224.94 84.4798 224.366 84.9634 223.882C85.447 223.399 86.0211 223.015 86.653 222.753C87.2849 222.492 87.9621 222.357 88.646 222.357Z" stroke="#10AF13" stroke-miterlimit="10"/>
<path d="M88.646 194.632C89.6763 194.632 90.6834 194.937 91.5402 195.509C92.3969 196.082 93.0647 196.895 93.4591 197.847C93.8536 198.798 93.9569 199.846 93.7561 200.856C93.5553 201.867 93.0594 202.795 92.331 203.524C91.6027 204.252 90.6746 204.749 89.6642 204.95C88.6538 205.151 87.6064 205.048 86.6545 204.654C85.7026 204.26 84.889 203.592 84.3165 202.736C83.7439 201.879 83.4382 200.872 83.438 199.842C83.438 198.461 83.9867 197.136 84.9633 196.159C85.9399 195.182 87.2646 194.633 88.646 194.632Z" stroke="#10AF13" stroke-miterlimit="10"/>
<path d="M88.646 166.909C85.7692 166.909 83.437 169.241 83.437 172.118C83.437 174.995 85.7692 177.327 88.646 177.327C91.5229 177.327 93.855 174.995 93.855 172.118C93.855 169.241 91.5229 166.909 88.646 166.909Z" stroke="#10AF13" stroke-miterlimit="10"/>
<path d="M88.646 139.183C89.6763 139.183 90.6834 139.488 91.5402 140.06C92.3969 140.632 93.0647 141.446 93.4591 142.398C93.8536 143.349 93.9569 144.397 93.7561 145.407C93.5553 146.418 93.0594 147.346 92.331 148.075C91.6027 148.803 90.6746 149.299 89.6642 149.501C88.6538 149.702 87.6064 149.599 86.6545 149.205C85.7026 148.811 84.889 148.143 84.3165 147.287C83.7439 146.43 83.4382 145.423 83.438 144.393C83.438 143.012 83.9867 141.687 84.9633 140.71C85.9399 139.733 87.2646 139.183 88.646 139.183Z" stroke="#10AF13" stroke-miterlimit="10"/>
<path d="M88.646 111.461C89.676 111.461 90.683 111.766 91.5394 112.339C92.3959 112.911 93.0634 113.724 93.4576 114.676C93.8517 115.628 93.9549 116.675 93.7539 117.685C93.553 118.695 93.057 119.623 92.3286 120.352C91.6003 121.08 90.6723 121.576 89.662 121.777C88.6518 121.978 87.6046 121.875 86.653 121.481C85.7013 121.086 84.888 120.419 84.3157 119.562C83.7434 118.706 83.438 117.699 83.438 116.669C83.438 115.985 83.5727 115.308 83.8344 114.676C84.0962 114.044 84.4798 113.47 84.9634 112.986C85.447 112.503 86.0211 112.119 86.653 111.857C87.2849 111.596 87.9621 111.461 88.646 111.461Z" stroke="#10AF13" stroke-miterlimit="10"/>
<path d="M88.646 83.7371C89.676 83.7371 90.683 84.0425 91.5394 84.6148C92.3959 85.187 93.0634 86.0004 93.4576 86.952C93.8517 87.9037 93.9549 88.9509 93.7539 89.9611C93.553 90.9714 93.057 91.8993 92.3286 92.6277C91.6003 93.356 90.6723 93.852 89.662 94.053C88.6518 94.254 87.6046 94.1508 86.653 93.7566C85.7013 93.3625 84.888 92.6949 84.3157 91.8385C83.7434 90.982 83.438 89.9751 83.438 88.9451C83.438 88.2611 83.5727 87.5839 83.8344 86.952C84.0962 86.3202 84.4798 85.7461 84.9634 85.2625C85.447 84.7789 86.0211 84.3952 86.653 84.1335C87.2849 83.8718 87.9621 83.7371 88.646 83.7371Z" stroke="#10AF13" stroke-miterlimit="10"/>
<path d="M88.646 56.012C89.676 56.012 90.683 56.3174 91.5394 56.8897C92.3959 57.4619 93.0634 58.2753 93.4576 59.227C93.8517 60.1786 93.9549 61.2258 93.7539 62.236C93.553 63.2463 93.057 64.1742 92.3286 64.9026C91.6003 65.6309 90.6723 66.127 89.662 66.3279C88.6518 66.5289 87.6046 66.4257 86.653 66.0315C85.7013 65.6374 84.888 64.9698 84.3157 64.1134C83.7434 63.2569 83.438 62.25 83.438 61.22C83.438 60.536 83.5727 59.8588 83.8344 59.227C84.0962 58.5951 84.4798 58.021 84.9634 57.5374C85.447 57.0538 86.0211 56.6701 86.653 56.4084C87.2849 56.1467 87.9621 56.012 88.646 56.012Z" stroke="#10AF13" stroke-miterlimit="10"/>
<path d="M88.646 28.2881C85.7692 28.2881 83.437 30.6202 83.437 33.4971C83.437 36.3739 85.7692 38.7061 88.646 38.7061C91.5229 38.7061 93.855 36.3739 93.855 33.4971C93.855 30.6202 91.5229 28.2881 88.646 28.2881Z" stroke="#10AF13" stroke-miterlimit="10"/>
<path d="M88.646 0.563965C89.676 0.563965 90.683 0.869419 91.5394 1.44168C92.3959 2.01394 93.0634 2.82732 93.4576 3.77896C93.8517 4.7306 93.9549 5.77774 93.7539 6.78799C93.553 7.79825 93.057 8.72624 92.3286 9.45459C91.6003 10.1829 90.6723 10.679 89.662 10.8799C88.6518 11.0809 87.6046 10.9777 86.653 10.5835C85.7013 10.1893 84.888 9.52183 84.3157 8.66537C83.7434 7.80892 83.438 6.80202 83.438 5.77197C83.438 5.08805 83.5727 4.41082 83.8344 3.77896C84.0962 3.1471 84.4798 2.57296 84.9634 2.08936C85.447 1.60575 86.0211 1.22215 86.653 0.960419C87.2849 0.698692 87.9621 0.563965 88.646 0.563965Z" stroke="#10AF13" stroke-miterlimit="10"/>
</g>
<defs>
<clipPath id="clip0_1753_82816">
<rect width="260.936" height="122" fill="white" transform="matrix(0 -1 1 0 0 261)"/>
</clipPath>
</defs>
</svg>
